# Exported from Wings 3D 2.1.7
mtllib CUBE.mtl
o Cube1
#8 vertices, 6 faces
v -1.00000000 -1.00000000 -1.00000000
v -1.00000000 -1.00000000 1.00000000
v -1.00000000 1.00000000 -1.00000000
v -1.00000000 1.00000000 1.00000000
v 1.00000000 -1.00000000 -1.00000000
v 1.00000000 -1.00000000 1.00000000
v 1.00000000 1.00000000 -1.00000000
v 1.00000000 1.00000000 1.00000000
vn -0.57735027 -0.57735027 -0.57735027
vn -0.57735027 -0.57735027 0.57735027
vn -0.57735027 0.57735027 -0.57735027
vn -0.57735027 0.57735027 0.57735027
vn 0.57735027 -0.57735027 -0.57735027
vn 0.57735027 -0.57735027 0.57735027
vn 0.57735027 0.57735027 -0.57735027
vn 0.57735027 0.57735027 0.57735027
vt 0.0 0.0
g Cube1_default
usemtl default
s 1
f 1/1/1 5/1/5 6/1/6 2/1/2
f 2/1/2 4/1/4 3/1/3 1/1/1
f 2/1/2 6/1/6 8/1/8 4/1/4
f 3/1/3 7/1/7 5/1/5 1/1/1
f 4/1/4 8/1/8 7/1/7 3/1/3
f 5/1/5 7/1/7 8/1/8 6/1/6
