# Blender v2.79 (sub 0) OBJ File: ''
# www.blender.org
mtllib FlyStation.mtl
o Plane
v -7.000000 0.000000 7.000000
v 7.000000 0.000000 7.000000
v -7.000000 0.000000 -7.000000
v 7.000000 0.000000 -7.000000
v -7.000000 0.000000 -0.700000
v 7.000000 0.000000 -0.700000
v -7.000000 0.000000 0.455000
v 7.000000 0.000000 0.455000
v 7.000000 0.100000 0.224000
v 7.000000 0.100000 -0.469000
v -7.000000 0.100000 -0.469000
v -7.000000 0.100000 0.224000
vt 0.992908 0.550000
vt 0.000000 1.000000
vt 0.000000 0.550000
vt 0.992908 0.467500
vt 0.000000 0.484000
vt 0.000000 0.467500
vt 0.992908 0.000000
vt 0.000000 0.000000
vt 0.992908 0.484000
vt 0.000000 0.533500
vt 1.000000 0.000000
vt 0.992908 0.066000
vt 0.992908 0.016500
vt 1.000000 0.082500
vt 0.992908 0.148500
vt 0.992908 0.099000
vt 0.992908 0.533500
vt 0.992908 1.000000
vt 1.000000 0.082500
vt 1.000000 0.165000
vn 0.0000 1.0000 0.0000
vn 0.0000 0.9177 0.3973
vn -1.0000 0.0000 0.0000
vn 1.0000 0.0000 0.0000
vn 0.0000 0.9177 -0.3973
usemtl None
s off
f 6/1/1 3/2/1 5/3/1
f 8/4/2 12/5/2 7/6/2
f 2/7/1 7/6/1 1/8/1
f 9/9/1 11/10/1 12/5/1
f 5/11/3 12/12/3 11/13/3
f 8/14/4 10/15/4 9/16/4
f 5/3/5 10/17/5 6/1/5
f 6/1/1 4/18/1 3/2/1
f 8/4/2 9/9/2 12/5/2
f 2/7/1 8/4/1 7/6/1
f 9/9/1 10/17/1 11/10/1
f 5/11/3 7/19/3 12/12/3
f 8/14/4 6/20/4 10/15/4
f 5/3/5 11/10/5 10/17/5
